<svg width="28" height="28" viewBox="0 0 28 28" fill="none" xmlns="http://www.w3.org/2000/svg">
<path fill-rule="evenodd" clip-rule="evenodd" d="M1.75 13.9999C1.75 13.7678 1.84219 13.5453 2.00628 13.3812C2.17038 13.2171 2.39294 13.1249 2.625 13.1249H23.2628L17.7555 7.61938C17.5912 7.45508 17.4989 7.23224 17.4989 6.99988C17.4989 6.76753 17.5912 6.54469 17.7555 6.38038C17.9198 6.21608 18.1426 6.12378 18.375 6.12378C18.6074 6.12378 18.8302 6.21608 18.9945 6.38038L25.9945 13.3804C26.076 13.4617 26.1406 13.5582 26.1847 13.6645C26.2289 13.7708 26.2516 13.8848 26.2516 13.9999C26.2516 14.115 26.2289 14.2289 26.1847 14.3352C26.1406 14.4415 26.076 14.5381 25.9945 14.6194L18.9945 21.6194C18.8302 21.7837 18.6074 21.876 18.375 21.876C18.1426 21.876 17.9198 21.7837 17.7555 21.6194C17.5912 21.4551 17.4989 21.2322 17.4989 20.9999C17.4989 20.7675 17.5912 20.5447 17.7555 20.3804L23.2628 14.8749H2.625C2.39294 14.8749 2.17038 14.7827 2.00628 14.6186C1.84219 14.4545 1.75 14.2319 1.75 13.9999Z" fill="#652D90"/>
</svg>
