<svg width="414" height="233" viewBox="0 0 414 233" fill="none" xmlns="http://www.w3.org/2000/svg">
<path d="M142.643 173.988L144.991 166.758H146.756L143.43 176H141.875L138.561 166.758H140.319L142.643 173.988ZM149.295 176H147.752V169.132H149.295V176ZM147.657 167.348C147.657 167.111 147.731 166.914 147.879 166.758C148.032 166.601 148.248 166.523 148.527 166.523C148.806 166.523 149.022 166.601 149.174 166.758C149.327 166.914 149.403 167.111 149.403 167.348C149.403 167.581 149.327 167.776 149.174 167.932C149.022 168.084 148.806 168.161 148.527 168.161C148.248 168.161 148.032 168.084 147.879 167.932C147.731 167.776 147.657 167.581 147.657 167.348ZM154.005 176.127C153.027 176.127 152.234 175.82 151.625 175.207C151.019 174.589 150.717 173.768 150.717 172.744V172.553C150.717 171.868 150.848 171.256 151.11 170.719C151.377 170.177 151.749 169.756 152.228 169.456C152.706 169.155 153.239 169.005 153.827 169.005C154.762 169.005 155.484 169.303 155.992 169.9C156.504 170.497 156.76 171.341 156.76 172.433V173.055H152.272C152.319 173.622 152.507 174.07 152.837 174.4C153.171 174.73 153.59 174.896 154.094 174.896C154.8 174.896 155.376 174.61 155.82 174.039L156.652 174.832C156.377 175.243 156.009 175.562 155.547 175.791C155.09 176.015 154.576 176.127 154.005 176.127ZM153.821 170.243C153.398 170.243 153.055 170.391 152.792 170.687C152.534 170.983 152.369 171.396 152.297 171.925H155.236V171.811C155.202 171.294 155.065 170.905 154.824 170.643C154.583 170.376 154.248 170.243 153.821 170.243ZM163.996 173.874L165.088 169.132H166.592L164.72 176H163.45L161.978 171.284L160.53 176H159.261L157.382 169.132H158.886L159.997 173.823L161.406 169.132H162.568L163.996 173.874ZM171.728 176C171.66 175.869 171.601 175.655 171.55 175.359C171.059 175.871 170.458 176.127 169.747 176.127C169.057 176.127 168.494 175.93 168.059 175.537C167.623 175.143 167.405 174.656 167.405 174.077C167.405 173.345 167.676 172.784 168.217 172.395C168.763 172.001 169.542 171.804 170.553 171.804H171.499V171.354C171.499 170.998 171.4 170.715 171.201 170.503C171.002 170.287 170.699 170.179 170.293 170.179C169.942 170.179 169.654 170.268 169.43 170.446C169.205 170.619 169.093 170.841 169.093 171.112H167.551C167.551 170.736 167.676 170.384 167.925 170.059C168.175 169.729 168.514 169.47 168.941 169.284C169.373 169.098 169.853 169.005 170.382 169.005C171.186 169.005 171.827 169.208 172.305 169.614C172.783 170.016 173.029 170.583 173.042 171.315V174.413C173.042 175.031 173.128 175.524 173.302 175.892V176H171.728ZM170.033 174.889C170.337 174.889 170.623 174.815 170.89 174.667C171.16 174.519 171.364 174.32 171.499 174.07V172.775H170.667C170.096 172.775 169.667 172.875 169.379 173.074C169.091 173.273 168.947 173.554 168.947 173.918C168.947 174.214 169.045 174.451 169.239 174.629C169.438 174.802 169.703 174.889 170.033 174.889ZM180.684 172.636C180.684 173.702 180.445 174.551 179.967 175.181C179.493 175.812 178.839 176.127 178.005 176.127C177.201 176.127 176.575 175.837 176.126 175.257L176.05 176H174.654V166.25H176.196V169.792C176.641 169.267 177.239 169.005 177.993 169.005C178.831 169.005 179.489 169.316 179.967 169.938C180.445 170.56 180.684 171.43 180.684 172.547V172.636ZM179.142 172.502C179.142 171.758 179.01 171.199 178.748 170.827C178.486 170.454 178.105 170.268 177.605 170.268C176.937 170.268 176.467 170.56 176.196 171.144V173.975C176.471 174.572 176.945 174.87 177.618 174.87C178.101 174.87 178.473 174.69 178.735 174.331C178.998 173.971 179.133 173.427 179.142 172.699V172.502ZM183.623 176H182.081V166.25H183.623V176ZM188.333 176.127C187.355 176.127 186.562 175.82 185.953 175.207C185.347 174.589 185.045 173.768 185.045 172.744V172.553C185.045 171.868 185.176 171.256 185.438 170.719C185.705 170.177 186.077 169.756 186.556 169.456C187.034 169.155 187.567 169.005 188.155 169.005C189.09 169.005 189.812 169.303 190.32 169.9C190.832 170.497 191.088 171.341 191.088 172.433V173.055H186.6C186.647 173.622 186.835 174.07 187.165 174.4C187.499 174.73 187.918 174.896 188.422 174.896C189.129 174.896 189.704 174.61 190.148 174.039L190.98 174.832C190.705 175.243 190.337 175.562 189.875 175.791C189.418 176.015 188.904 176.127 188.333 176.127ZM188.149 170.243C187.726 170.243 187.383 170.391 187.121 170.687C186.862 170.983 186.697 171.396 186.625 171.925H189.564V171.811C189.531 171.294 189.393 170.905 189.152 170.643C188.911 170.376 188.576 170.243 188.149 170.243ZM202.438 166.758V172.934C202.438 173.916 202.122 174.694 201.492 175.27C200.865 175.841 200.03 176.127 198.984 176.127C197.926 176.127 197.086 175.846 196.464 175.283C195.842 174.716 195.531 173.931 195.531 172.928V166.758H197.131V172.94C197.131 173.558 197.287 174.03 197.601 174.356C197.914 174.682 198.375 174.845 198.984 174.845C200.22 174.845 200.838 174.193 200.838 172.89V166.758H202.438ZM210.023 172.636C210.023 173.698 209.782 174.546 209.299 175.181C208.817 175.812 208.169 176.127 207.357 176.127C206.604 176.127 206.001 175.879 205.548 175.384V178.641H204.005V169.132H205.427L205.491 169.83C205.944 169.28 206.559 169.005 207.338 169.005C208.176 169.005 208.832 169.318 209.306 169.944C209.784 170.566 210.023 171.432 210.023 172.541V172.636ZM208.487 172.502C208.487 171.817 208.349 171.273 208.074 170.871C207.803 170.469 207.414 170.268 206.906 170.268C206.276 170.268 205.823 170.528 205.548 171.049V174.096C205.827 174.629 206.284 174.896 206.919 174.896C207.41 174.896 207.793 174.699 208.068 174.305C208.347 173.907 208.487 173.306 208.487 172.502ZM211.045 172.502C211.045 171.83 211.178 171.224 211.445 170.687C211.711 170.145 212.086 169.731 212.568 169.443C213.051 169.151 213.605 169.005 214.231 169.005C215.158 169.005 215.909 169.303 216.485 169.9C217.065 170.497 217.378 171.288 217.424 172.274L217.431 172.636C217.431 173.313 217.299 173.918 217.037 174.451C216.779 174.984 216.407 175.397 215.92 175.689C215.438 175.981 214.879 176.127 214.244 176.127C213.275 176.127 212.499 175.805 211.915 175.162C211.335 174.515 211.045 173.653 211.045 172.579V172.502ZM212.587 172.636C212.587 173.342 212.733 173.897 213.025 174.299C213.317 174.697 213.724 174.896 214.244 174.896C214.765 174.896 215.169 174.692 215.457 174.286C215.749 173.88 215.895 173.285 215.895 172.502C215.895 171.808 215.744 171.258 215.444 170.852C215.148 170.446 214.743 170.243 214.231 170.243C213.728 170.243 213.328 170.444 213.032 170.846C212.736 171.243 212.587 171.84 212.587 172.636ZM220.167 169.132L220.211 169.925C220.719 169.312 221.385 169.005 222.21 169.005C223.641 169.005 224.369 169.824 224.394 171.461V176H222.852V171.55C222.852 171.114 222.756 170.793 222.566 170.585C222.38 170.374 222.073 170.268 221.646 170.268C221.023 170.268 220.56 170.549 220.255 171.112V176H218.713V169.132H220.167ZM232.754 172.439H230.964V176H229.358V166.758H232.608C233.674 166.758 234.497 166.997 235.077 167.475C235.657 167.953 235.947 168.645 235.947 169.551C235.947 170.169 235.797 170.687 235.496 171.106C235.2 171.521 234.785 171.84 234.252 172.064L236.328 175.917V176H234.607L232.754 172.439ZM230.964 171.15H232.614C233.156 171.15 233.579 171.015 233.884 170.744C234.188 170.469 234.341 170.095 234.341 169.621C234.341 169.125 234.199 168.743 233.916 168.472C233.636 168.201 233.217 168.061 232.659 168.053H230.964V171.15ZM240.346 176.127C239.368 176.127 238.575 175.82 237.965 175.207C237.36 174.589 237.058 173.768 237.058 172.744V172.553C237.058 171.868 237.189 171.256 237.451 170.719C237.718 170.177 238.09 169.756 238.568 169.456C239.047 169.155 239.58 169.005 240.168 169.005C241.103 169.005 241.825 169.303 242.333 169.9C242.845 170.497 243.101 171.341 243.101 172.433V173.055H238.613C238.659 173.622 238.848 174.07 239.178 174.4C239.512 174.73 239.931 174.896 240.435 174.896C241.141 174.896 241.717 174.61 242.161 174.039L242.993 174.832C242.718 175.243 242.349 175.562 241.888 175.791C241.431 176.015 240.917 176.127 240.346 176.127ZM240.162 170.243C239.738 170.243 239.396 170.391 239.133 170.687C238.875 170.983 238.71 171.396 238.638 171.925H241.577V171.811C241.543 171.294 241.406 170.905 241.165 170.643C240.923 170.376 240.589 170.243 240.162 170.243ZM245.944 176H244.402V166.25H245.944V176ZM250.654 176.127C249.677 176.127 248.883 175.82 248.274 175.207C247.669 174.589 247.366 173.768 247.366 172.744V172.553C247.366 171.868 247.497 171.256 247.76 170.719C248.026 170.177 248.399 169.756 248.877 169.456C249.355 169.155 249.888 169.005 250.477 169.005C251.412 169.005 252.133 169.303 252.641 169.9C253.153 170.497 253.409 171.341 253.409 172.433V173.055H248.921C248.968 173.622 249.156 174.07 249.486 174.4C249.821 174.73 250.24 174.896 250.743 174.896C251.45 174.896 252.025 174.61 252.47 174.039L253.301 174.832C253.026 175.243 252.658 175.562 252.197 175.791C251.74 176.015 251.226 176.127 250.654 176.127ZM250.47 170.243C250.047 170.243 249.704 170.391 249.442 170.687C249.184 170.983 249.019 171.396 248.947 171.925H251.886V171.811C251.852 171.294 251.714 170.905 251.473 170.643C251.232 170.376 250.898 170.243 250.47 170.243ZM258.716 176C258.648 175.869 258.589 175.655 258.538 175.359C258.047 175.871 257.446 176.127 256.735 176.127C256.046 176.127 255.483 175.93 255.047 175.537C254.611 175.143 254.393 174.656 254.393 174.077C254.393 173.345 254.664 172.784 255.206 172.395C255.751 172.001 256.53 171.804 257.542 171.804H258.487V171.354C258.487 170.998 258.388 170.715 258.189 170.503C257.99 170.287 257.688 170.179 257.281 170.179C256.93 170.179 256.642 170.268 256.418 170.446C256.194 170.619 256.082 170.841 256.082 171.112H254.539C254.539 170.736 254.664 170.384 254.914 170.059C255.163 169.729 255.502 169.47 255.929 169.284C256.361 169.098 256.841 169.005 257.37 169.005C258.174 169.005 258.815 169.208 259.293 169.614C259.772 170.016 260.017 170.583 260.03 171.315V174.413C260.03 175.031 260.117 175.524 260.29 175.892V176H258.716ZM257.021 174.889C257.326 174.889 257.611 174.815 257.878 174.667C258.149 174.519 258.352 174.32 258.487 174.07V172.775H257.656C257.084 172.775 256.655 172.875 256.367 173.074C256.079 173.273 255.936 173.554 255.936 173.918C255.936 174.214 256.033 174.451 256.228 174.629C256.426 174.802 256.691 174.889 257.021 174.889ZM265.495 174.134C265.495 173.859 265.381 173.649 265.152 173.505C264.928 173.361 264.554 173.235 264.029 173.125C263.504 173.014 263.066 172.875 262.715 172.706C261.945 172.333 261.56 171.794 261.56 171.087C261.56 170.494 261.809 169.999 262.309 169.602C262.808 169.204 263.443 169.005 264.213 169.005C265.034 169.005 265.696 169.208 266.2 169.614C266.708 170.021 266.961 170.547 266.961 171.195H265.419C265.419 170.899 265.309 170.653 265.089 170.458C264.869 170.26 264.577 170.16 264.213 170.16C263.874 170.16 263.597 170.238 263.381 170.395C263.17 170.552 263.064 170.761 263.064 171.023C263.064 171.26 263.163 171.444 263.362 171.576C263.561 171.707 263.963 171.84 264.568 171.976C265.174 172.107 265.647 172.265 265.99 172.452C266.337 172.634 266.593 172.854 266.758 173.112C266.928 173.37 267.012 173.683 267.012 174.051C267.012 174.669 266.756 175.171 266.244 175.556C265.732 175.937 265.061 176.127 264.232 176.127C263.669 176.127 263.168 176.025 262.728 175.822C262.287 175.619 261.945 175.34 261.699 174.984C261.454 174.629 261.331 174.246 261.331 173.835H262.829C262.85 174.199 262.988 174.481 263.242 174.68C263.496 174.874 263.832 174.972 264.251 174.972C264.657 174.972 264.966 174.896 265.178 174.743C265.389 174.587 265.495 174.383 265.495 174.134ZM271.386 176.127C270.408 176.127 269.615 175.82 269.005 175.207C268.4 174.589 268.098 173.768 268.098 172.744V172.553C268.098 171.868 268.229 171.256 268.491 170.719C268.758 170.177 269.13 169.756 269.608 169.456C270.087 169.155 270.62 169.005 271.208 169.005C272.143 169.005 272.865 169.303 273.373 169.9C273.885 170.497 274.141 171.341 274.141 172.433V173.055H269.653C269.699 173.622 269.888 174.07 270.218 174.4C270.552 174.73 270.971 174.896 271.475 174.896C272.181 174.896 272.757 174.61 273.201 174.039L274.033 174.832C273.758 175.243 273.389 175.562 272.928 175.791C272.471 176.015 271.957 176.127 271.386 176.127ZM271.202 170.243C270.778 170.243 270.436 170.391 270.173 170.687C269.915 170.983 269.75 171.396 269.678 171.925H272.617V171.811C272.583 171.294 272.446 170.905 272.205 170.643C271.963 170.376 271.629 170.243 271.202 170.243Z" fill="white"/>
<mask id="mask0" mask-type="alpha" maskUnits="userSpaceOnUse" x="173" y="63" width="68" height="90">
<rect x="173" y="63" width="68" height="90" fill="#C4C4C4"/>
</mask>
<g mask="url(#mask0)">
<path d="M176.512 74.1331L191.946 65.9194L237.118 89.4264V141.819L222.252 150.033L215.173 148.478L174.817 127.647L176.512 74.1331Z" fill="white"/>
<path d="M192.258 62.9754L172.695 72.47V128.743L220.519 153.779L240.273 143.507V87.2089L192.258 62.9754ZM192.303 68.6467L205.398 75.2674L195.202 81.5822L180.756 74.0312L192.303 68.6467ZM218.11 146.789L177.755 125.665V78.1604L192.258 85.7497V92.6635L194.17 92.8993L197.439 96.4741L200.88 97.1687L203.594 99.7175V91.6694L218.11 99.2333V146.789ZM206.373 87.4192L217.365 81.3082L232.327 88.8593L220.634 94.8747L206.373 87.4192ZM235.239 140.41L223.163 146.693V99.2333L235.239 93.0204V140.41Z" fill="#652D90"/>
<path d="M199.051 111.551C199.051 110.168 197.706 108.69 196.037 107.727C194.125 106.619 192.309 106.746 191.36 108.078L183.382 99.5582C185.676 96.5951 190.219 96.251 197.4 100.361C204.448 104.395 209.712 110.34 209.712 115.903C209.712 122.715 202.498 119.809 202.498 123.231L193.233 117.942C193.252 112.551 199.051 114.265 199.051 111.551ZM191.946 124.225C191.946 121.243 194.374 120.363 197.885 122.371C201.396 124.378 203.824 128.029 203.824 131.011C203.824 133.994 201.389 134.969 197.885 132.961C194.38 130.954 191.946 127.163 191.946 124.225Z" fill="#4A9D45"/>
</g>
</svg>
