<svg width="16" height="16" viewBox="0 0 16 16" fill="none" xmlns="http://www.w3.org/2000/svg">
<g clip-path="url(#clip0)">
<path d="M12.1461 0.146039C12.1925 0.0994761 12.2477 0.0625332 12.3084 0.0373268C12.3692 0.0121203 12.4343 -0.000854492 12.5001 -0.000854492C12.5658 -0.000854492 12.6309 0.0121203 12.6917 0.0373268C12.7524 0.0625332 12.8076 0.0994761 12.8541 0.146039L15.8541 3.14604C15.9006 3.19248 15.9376 3.24766 15.9628 3.30841C15.988 3.36915 16.0009 3.43427 16.0009 3.50004C16.0009 3.56581 15.988 3.63093 15.9628 3.69167C15.9376 3.75242 15.9006 3.80759 15.8541 3.85404L5.85405 13.854C5.80607 13.9017 5.74891 13.9391 5.68605 13.964L0.68605 15.964C0.595186 16.0004 0.495646 16.0093 0.39977 15.9896C0.303893 15.97 0.215897 15.9226 0.146691 15.8534C0.0774845 15.7842 0.030111 15.6962 0.0104435 15.6003C-0.00922396 15.5044 -0.000320453 15.4049 0.0360502 15.314L2.03605 10.314C2.06098 10.2512 2.0984 10.194 2.14605 10.146L12.1461 0.146039ZM11.2071 2.50004L13.5001 4.79304L14.7931 3.50004L12.5001 1.20704L11.2071 2.50004ZM12.7931 5.50004L10.5001 3.20704L4.00005 9.70704V10H4.50005C4.63266 10 4.75984 10.0527 4.8536 10.1465C4.94737 10.2403 5.00005 10.3674 5.00005 10.5V11H5.50005C5.63266 11 5.75984 11.0527 5.8536 11.1465C5.94737 11.2403 6.00005 11.3674 6.00005 11.5V12H6.29305L12.7931 5.50004ZM3.03205 10.675L2.92605 10.781L1.39805 14.602L5.21905 13.074L5.32505 12.968C5.22967 12.9324 5.14744 12.8685 5.08937 12.7849C5.03129 12.7012 5.00013 12.6019 5.00005 12.5V12H4.50005C4.36744 12 4.24026 11.9474 4.1465 11.8536C4.05273 11.7598 4.00005 11.6326 4.00005 11.5V11H3.50005C3.39823 11 3.29886 10.9688 3.21523 10.9107C3.1316 10.8526 3.06769 10.7704 3.03205 10.675Z" fill="black"/>
</g>
<defs>
<clipPath id="clip0">
<rect width="16" height="16" fill="white"/>
</clipPath>
</defs>
</svg>
