<svg width="31" height="30" viewBox="0 0 31 30" fill="none" xmlns="http://www.w3.org/2000/svg">
<path d="M9.2635 8.71134C9.35183 8.62403 9.45676 8.55476 9.57229 8.5075C9.68782 8.46024 9.81167 8.43591 9.93674 8.43591C10.0618 8.43591 10.1857 8.46024 10.3012 8.5075C10.4167 8.55476 10.5217 8.62403 10.61 8.71134L15.6422 13.6745L20.6745 8.71134C20.7629 8.62417 20.8678 8.55503 20.9834 8.50786C21.0989 8.46068 21.2227 8.4364 21.3477 8.4364C21.4727 8.4364 21.5966 8.46068 21.7121 8.50786C21.8276 8.55503 21.9325 8.62417 22.021 8.71134C22.1094 8.7985 22.1795 8.90198 22.2274 9.01587C22.2752 9.12976 22.2998 9.25182 22.2998 9.37509C22.2998 9.49836 22.2752 9.62042 22.2274 9.73431C22.1795 9.84819 22.1094 9.95167 22.021 10.0388L16.9868 15.0001L22.021 19.9613C22.1094 20.0485 22.1795 20.152 22.2274 20.2659C22.2752 20.3798 22.2998 20.5018 22.2998 20.6251C22.2998 20.7484 22.2752 20.8704 22.2274 20.9843C22.1795 21.0982 22.1094 21.2017 22.021 21.2888C21.9325 21.376 21.8276 21.4451 21.7121 21.4923C21.5966 21.5395 21.4727 21.5638 21.3477 21.5638C21.2227 21.5638 21.0989 21.5395 20.9834 21.4923C20.8678 21.4451 20.7629 21.376 20.6745 21.2888L15.6422 16.3257L10.61 21.2888C10.5216 21.376 10.4166 21.4451 10.3011 21.4923C10.1856 21.5395 10.0618 21.5638 9.93674 21.5638C9.81171 21.5638 9.6879 21.5395 9.57239 21.4923C9.45687 21.4451 9.35191 21.376 9.2635 21.2888C9.17508 21.2017 9.10495 21.0982 9.0571 20.9843C9.00926 20.8704 8.98463 20.7484 8.98463 20.6251C8.98463 20.5018 9.00926 20.3798 9.0571 20.2659C9.10495 20.152 9.17508 20.0485 9.2635 19.9613L14.2976 15.0001L9.2635 10.0388C9.17494 9.95175 9.10468 9.8483 9.05674 9.7344C9.00881 9.6205 8.98413 9.4984 8.98413 9.37509C8.98413 9.25177 9.00881 9.12967 9.05674 9.01578C9.10468 8.90188 9.17494 8.79842 9.2635 8.71134Z" fill="black"/>
</svg>
