<svg width="73" height="95" viewBox="0 0 73 95" fill="none" xmlns="http://www.w3.org/2000/svg">
<path d="M6.51239 13.1331L21.9459 4.91937L67.1185 28.4264V80.8187L52.2521 89.0325L45.1726 87.4777L4.81739 66.6469L6.51239 13.1331Z" fill="white"/>
<path d="M22.2581 1.9754L2.69544 11.47V67.7429L50.5189 92.7793L70.2727 82.5073V26.2089L22.2581 1.9754ZM22.3027 7.64667L35.3976 14.2674L25.2021 20.5822L10.7563 13.0312L22.3027 7.64667ZM48.1102 85.789L7.75497 64.6652V17.1604L22.2581 24.7497V31.6635L24.1698 31.8993L27.4387 35.4741L30.8797 36.1687L33.5943 38.7175V30.6694L48.1102 38.2333V85.789ZM36.3726 26.4192L47.3646 20.3082L62.3266 27.8593L50.6336 33.8747L36.3726 26.4192ZM65.2387 79.4105L53.1633 85.6934V38.2333L65.2387 32.0204V79.4105Z" fill="#652D90"/>
<path d="M29.0509 50.5507C29.0509 49.1679 27.7064 47.6896 26.0368 46.7274C24.1252 45.6186 22.3091 45.7461 21.3596 47.0779L13.3816 38.5582C15.6756 35.5951 20.219 35.251 27.4005 39.3611C34.4482 43.3947 39.7116 49.34 39.7116 54.9029C39.7116 61.7148 32.4983 58.8091 32.4983 62.231L23.2331 56.942C23.2522 51.5512 29.0509 53.2653 29.0509 50.5507ZM21.9459 63.225C21.9459 60.2428 24.3737 59.3635 27.8848 61.3707C31.3959 63.378 33.8237 67.0292 33.8237 70.0114C33.8237 72.9936 31.3895 73.9686 27.8848 71.9613C24.3801 69.9541 21.9459 66.1626 21.9459 63.225Z" fill="#4A9D45"/>
</svg>
