<svg width="130" height="53" viewBox="0 0 130 53" fill="none" xmlns="http://www.w3.org/2000/svg">
<path d="M3.84702 7.29028L12.403 2.69507L37.4457 15.8461V45.1571L29.2041 49.7523L25.2794 48.8789L2.90381 37.2251L3.84702 7.29028Z" fill="white"/>
<path d="M55.6068 28.3484L55.5644 21.9707L52.5546 27.0936H50.4951L47.4818 22.1953V28.3484H43.2427V14.356H47.0861L51.5761 21.8103L55.9742 14.356H59.8177L59.8565 28.3484H55.6068Z" fill="#4A9D45"/>
<path d="M74.0505 17.4147L69.5924 28.5694C68.4054 31.5676 66.6603 32.441 64.3641 32.441C63.1736 32.441 61.8065 32.0631 61.0753 31.4606L62.559 28.3627C63.0146 28.7188 63.5692 28.922 64.1451 28.9438C64.3512 28.9613 64.5586 28.9305 64.751 28.8539C64.9435 28.7772 65.1157 28.6567 65.2543 28.5017L60.6973 17.429H65.2897L67.5293 23.2862L69.8079 17.429L74.0505 17.4147Z" fill="#4A9D45"/>
<path d="M73.8704 27.4715L75.0997 24.4912C76.2588 25.1348 77.5603 25.472 78.8832 25.4715C79.9747 25.4715 80.2715 25.2719 80.2715 24.9511C80.2715 23.8317 74.0294 25.329 74.0294 20.9512C74.0294 18.8942 75.9334 17.2151 79.5791 17.2151C81.1617 17.2151 82.8468 17.5146 83.9949 18.1135L82.7655 21.0938C81.807 20.5616 80.7296 20.2855 79.6356 20.2917C78.4875 20.2917 78.1696 20.5519 78.1696 20.8122C78.1696 21.953 84.3905 20.4557 84.3905 24.8512C84.3905 26.8298 82.55 28.5481 78.7843 28.5481C76.9226 28.5481 74.9832 28.1096 73.8704 27.4715Z" fill="#4A9D45"/>
<path d="M93.7236 27.9706C92.866 28.3881 91.9197 28.5865 90.9682 28.5481C87.9761 28.5481 86.2345 27.1221 86.2345 24.1097V21.3112H84.7473V18.0137H86.2345V14.9728H90.7103V18.0315H92.9288V21.3291H90.7103V24.0883C90.7103 24.7692 91.106 25.1578 91.6429 25.1578C92.0015 25.1603 92.3529 25.0561 92.6533 24.8584L93.7236 27.9706Z" fill="#4A9D45"/>
<path d="M106.024 23.9315H98.4962C98.8141 24.7693 99.556 25.2113 100.676 25.2113C101.501 25.2395 102.307 24.9532 102.933 24.4092L105.272 26.7906C104.212 27.9492 102.696 28.5481 100.538 28.5481C96.5568 28.5481 93.9674 26.1311 93.9674 22.8727C93.9674 19.5538 96.6027 17.2151 100.107 17.2151C103.318 17.2151 106.07 19.1723 106.07 22.8727C106.084 23.19 106.045 23.6106 106.024 23.9315ZM98.4185 21.7462H101.905C101.847 21.3271 101.635 20.9451 101.313 20.6748C100.99 20.4045 100.579 20.2653 100.16 20.2846C99.7407 20.2621 99.3284 20.4002 99.0056 20.6711C98.6827 20.9421 98.4731 21.326 98.4185 21.7462Z" fill="#4A9D45"/>
<path d="M115.258 17.2151V21.2114C114.93 21.1582 114.598 21.132 114.266 21.133C112.92 21.133 111.97 21.7533 111.97 23.493V28.3485H107.49V17.4148H111.751V18.5948C112.542 17.675 113.75 17.2151 115.258 17.2151Z" fill="#4A9D45"/>
<path d="M128.887 17.4147L124.429 28.5694C123.242 31.5676 121.497 32.4267 119.201 32.4267C118.01 32.4267 116.643 32.0488 115.912 31.4463L117.399 28.3484C117.853 28.7045 118.407 28.9077 118.982 28.9295C119.191 28.9505 119.402 28.9214 119.598 28.8446C119.793 28.7677 119.969 28.6454 120.109 28.4874L115.552 17.4147H120.144L122.384 23.2719L124.662 17.4147H128.887Z" fill="#4A9D45"/>
<path d="M12.5761 1.0481L1.73097 6.3456V37.824L28.2609 51.8343L39.212 46.084V14.6163L12.5761 1.0481ZM12.5761 4.21733L19.8497 7.92487L14.1975 11.4577L6.19972 7.22971L12.5761 4.21733ZM26.9043 47.9378L4.53586 36.1164V9.54335L12.5725 13.7856V17.6536L13.6323 17.7855L15.4446 19.7854L17.3522 20.174L18.8571 21.6V17.1117L26.9043 21.3433V47.9378ZM20.3973 14.7197L26.4946 11.3009L34.7856 15.5289L28.3068 18.8942L20.3973 14.7197ZM36.4035 44.3657L29.6916 47.8807V21.3433L36.4035 17.8675V44.3657Z" fill="#652D90"/>
<path d="M16.3418 28.2201C16.3418 27.45 15.5929 26.6194 14.6709 26.0811C13.6111 25.4608 12.6008 25.5357 12.078 26.2772L7.6375 21.5108C8.90924 19.8531 11.428 19.6606 15.4092 21.9636C19.334 24.2202 22.2554 27.5463 22.2554 30.6585C22.2554 34.4694 18.2636 32.8402 18.2636 34.7582L13.1236 31.7957C13.1236 28.7833 16.3418 29.7423 16.3418 28.2201ZM12.403 35.3143C12.403 33.6459 13.7489 33.1504 15.6918 34.2733C17.6348 35.3963 18.9842 37.439 18.9842 39.111C18.9842 40.7829 17.6383 41.3212 15.6918 40.1983C13.7454 39.0753 12.403 36.9577 12.403 35.3143Z" fill="#4A9D45"/>
<path d="M43.225 32.6834H48.1247C51.9788 32.6834 54.5753 35.1789 54.5753 38.7438C54.5753 42.3088 51.9788 44.8042 48.1247 44.8042H43.225V32.6834ZM48.0576 43.7347C51.2546 43.7347 53.3212 41.6885 53.3212 38.7723C53.3212 35.8562 51.2546 33.7921 48.0435 33.7921H44.5109V43.7205L48.0576 43.7347Z" fill="#652D90"/>
<path d="M61.7323 35.6494V36.8472C61.6299 36.8472 61.5239 36.8472 61.4391 36.8472C59.5457 36.8472 58.394 38.0593 58.394 40.2125V44.8648H57.1717V35.7029H58.3446V37.4854C58.9098 36.2768 60.0543 35.6494 61.7323 35.6494Z" fill="#652D90"/>
<path d="M62.937 40.2838C62.937 39.368 63.2059 38.4727 63.7097 37.7109C64.2135 36.9492 64.9297 36.3552 65.7679 36.0039C66.606 35.6526 67.5284 35.5598 68.4188 35.7372C69.3091 35.9146 70.1275 36.3542 70.7704 37.0005C71.4134 37.6469 71.8521 38.471 72.0313 39.3688C72.2105 40.2666 72.1221 41.1979 71.7772 42.045C71.4323 42.8921 70.8465 43.6172 70.0936 44.1285C69.3407 44.6399 68.4545 44.9147 67.547 44.9182C66.9372 44.9406 66.3293 44.8361 65.7611 44.6113C65.193 44.3865 64.6767 44.0463 64.2444 43.6116C63.812 43.177 63.4729 42.6573 63.2479 42.0848C63.023 41.5124 62.9172 40.8993 62.937 40.2838ZM70.8994 40.2838C70.8994 38.1448 69.4864 36.7189 67.547 36.7189C65.6076 36.7189 64.1734 38.1448 64.1734 40.2838C64.1734 42.4228 65.6182 43.8488 67.547 43.8488C69.4758 43.8488 70.8994 42.4014 70.8994 40.2838Z" fill="#652D90"/>
<path d="M83.8005 40.2839C83.8005 43.061 81.8753 44.9183 79.2929 44.9183C78.6142 44.9409 77.9412 44.7868 77.3386 44.4709C76.736 44.1549 76.2241 43.6878 75.8522 43.1144V48.2016H74.6334V35.7029H75.8027V37.5068C76.1691 36.9115 76.6848 36.4245 77.2978 36.0952C77.9107 35.7659 78.599 35.606 79.2929 35.6316C81.8753 35.6495 83.8005 37.5068 83.8005 40.2839ZM82.5783 40.2839C82.5783 38.1663 81.1158 36.7189 79.2081 36.7189C77.3005 36.7189 75.8345 38.1449 75.8345 40.2839C75.8345 42.4228 77.2793 43.8488 79.2081 43.8488C81.137 43.8488 82.5783 42.4015 82.5783 40.2839Z" fill="#652D90"/>
</svg>
