<svg id="Layer_1" data-name="Layer 1" xmlns="http://www.w3.org/2000/svg" viewBox="0 0 368 148.67"><defs><style>.cls-1{fill:#fff;}.cls-2{fill:#652d90;}.cls-3{fill:#4a9d45;}</style></defs><polygon class="cls-1" points="10.89 20.45 35.11 7.56 106 44.45 106 126.67 82.67 139.56 71.56 137.11 8.22 104.42 10.89 20.45"/><path class="cls-1" d="M157.41,79.52l-.12-17.89L148.77,76h-5.83l-8.53-13.74V79.52h-12V40.27h10.88L146,61.18l12.45-20.91h10.88l.11,39.25Z"/><path class="cls-1" d="M209.62,48.85,197,80.14C193.64,88.55,188.7,91,182.2,91c-3.37,0-7.24-1.06-9.31-2.75l4.2-8.69a7.81,7.81,0,0,0,4.49,1.63,3.8,3.8,0,0,0,3.14-1.24l-12.9-31.06h13l6.34,16.43,6.45-16.43Z"/><path class="cls-1" d="M209.11,77.06l3.48-8.36a22.2,22.2,0,0,0,10.71,2.75c3.09,0,3.93-.56,3.93-1.46,0-3.14-17.67,1.06-17.67-11.22,0-5.77,5.39-10.48,15.71-10.48,4.48,0,9.25.84,12.5,2.52l-3.48,8.36a18.17,18.17,0,0,0-8.86-2.25c-3.25,0-4.15.73-4.15,1.46,0,3.2,17.61-1,17.61,11.33,0,5.55-5.21,10.37-15.87,10.37C217.75,80.08,212.26,78.85,209.11,77.06Z"/><path class="cls-1" d="M265.31,78.46a16.44,16.44,0,0,1-7.8,1.62c-8.47,0-13.4-4-13.4-12.45V59.78H239.9V50.53h4.21V42h12.67v8.58h6.28v9.25h-6.28v7.74c0,1.91,1.12,3,2.64,3a5.17,5.17,0,0,0,2.86-.84Z"/><path class="cls-1" d="M300.13,67.13H278.82c.9,2.35,3,3.59,6.17,3.59a9.31,9.31,0,0,0,6.39-2.25L298,75.15c-3,3.25-7.29,4.93-13.4,4.93C273.33,80.08,266,73.3,266,64.16c0-9.31,7.46-15.87,17.38-15.87,9.09,0,16.88,5.49,16.88,15.87C300.3,65.05,300.19,66.23,300.13,67.13ZM278.6,61h9.87a4.77,4.77,0,0,0-4.94-4.1A4.72,4.72,0,0,0,278.6,61Z"/><path class="cls-1" d="M326.27,48.29V59.5a17.35,17.35,0,0,0-2.81-.22c-3.81,0-6.5,1.74-6.5,6.62V79.52H304.28V48.85h12.06v3.31C318.58,49.58,322,48.29,326.27,48.29Z"/><path class="cls-1" d="M364.85,48.85,352.23,80.14c-3.36,8.41-8.3,10.82-14.8,10.82-3.37,0-7.24-1.06-9.31-2.75l4.21-8.69a7.78,7.78,0,0,0,4.48,1.63A3.78,3.78,0,0,0,340,79.91l-12.9-31.06h13l6.34,16.43,6.45-16.43Z"/><path id="icon" class="cls-2" d="M35.6,2.94,4.9,17.8v88.3L80,145.4l31-16.13V41Zm0,8.89,20.59,10.4-16,9.91L17.55,20.28ZM76.16,134.47,12.84,101.31V26.77l22.75,11.9V49.52l3,.37,5.13,5.61,5.4,1.09,4.26,4V48L76.16,59.87ZM57.74,41.29,75,31.7,98.47,43.56,80.13,53Zm45.31,83.16-19,9.86V59.87l19-9.75Z"/><path class="cls-3" d="M46.26,79.16c0-2.16-2.12-4.49-4.73-6-3-1.74-5.86-1.53-7.34.55L21.62,60.34c3.6-4.65,10.73-5.19,22,1.27C54.73,67.94,63,77.27,63,86,63,96.69,51.7,92.12,51.7,97.5L37.15,89.19C37.15,80.74,46.26,83.43,46.26,79.16ZM35.11,99.06c0-4.68,3.81-6.07,9.31-2.92s9.32,8.88,9.32,13.57-3.81,6.2-9.32,3.05S35.11,103.67,35.11,99.06Z"/><path class="cls-1" d="M122.36,91.68h13.87c10.91,0,18.26,7,18.26,17s-7.35,17-18.26,17H122.36Zm13.68,31c9.05,0,14.9-5.74,14.9-13.92S145.09,94.79,136,94.79H126v27.85Z"/><path class="cls-1" d="M174.75,100v3.36c-.29,0-.59,0-.83,0-5.36,0-8.62,3.4-8.62,9.44v13.05h-3.46V100.15h3.32v5C166.76,101.76,170,100,174.75,100Z"/><path class="cls-1" d="M178.16,113a13,13,0,1,1,13.05,13A12.6,12.6,0,0,1,178.16,113Zm22.54,0c0-6-4-10-9.49-10s-9.55,4-9.55,10,4.09,10,9.55,10S200.7,118.94,200.7,113Z"/><path class="cls-1" d="M237.22,113c0,7.79-5.45,13-12.76,13a11.2,11.2,0,0,1-9.74-5.06v14.27h-3.45V100.15h3.31v5.06a11.15,11.15,0,0,1,9.88-5.26C231.77,100,237.22,105.21,237.22,113Zm-3.46,0c0-5.94-4.14-10-9.54-10s-9.55,4-9.55,10,4.09,10,9.55,10S233.76,118.94,233.76,113Z"/></svg>