<svg width="187" height="188" viewBox="0 0 187 188" fill="none" xmlns="http://www.w3.org/2000/svg">
<path d="M0 0H187V187.5H0V0Z" fill="#F2F2F2"/>
<g clip-path="url(#clip0)">
<path d="M87.8806 87.4688C87.8806 88.5876 87.4361 89.6607 86.645 90.4519C85.8538 91.243 84.7807 91.6875 83.6619 91.6875C82.543 91.6875 81.4699 91.243 80.6788 90.4519C79.8876 89.6607 79.4431 88.5876 79.4431 87.4688C79.4431 86.3499 79.8876 85.2768 80.6788 84.4856C81.4699 83.6945 82.543 83.25 83.6619 83.25C84.7807 83.25 85.8538 83.6945 86.645 84.4856C87.4361 85.2768 87.8806 86.3499 87.8806 87.4688V87.4688Z" fill="#CCCCCC"/>
<path d="M76.6306 74.8125C75.1388 74.8125 73.708 75.4051 72.6531 76.46C71.5982 77.5149 71.0056 78.9457 71.0056 80.4375V108.562C71.0056 110.054 71.5982 111.485 72.6531 112.54C73.708 113.595 75.1388 114.188 76.6306 114.188H110.381C111.872 114.188 113.303 113.595 114.358 112.54C115.413 111.485 116.006 110.054 116.006 108.562V80.4375C116.006 78.9457 115.413 77.5149 114.358 76.46C113.303 75.4051 111.872 74.8125 110.381 74.8125H76.6306V74.8125ZM110.381 77.625C111.127 77.625 111.842 77.9213 112.369 78.4488C112.897 78.9762 113.193 79.6916 113.193 80.4375V98.7188L102.57 93.2428C102.307 93.1107 102.008 93.0649 101.717 93.1118C101.425 93.1587 101.156 93.2961 100.947 93.5044L90.5131 103.939L83.0319 98.955C82.7618 98.7752 82.4378 98.6943 82.1148 98.7261C81.7919 98.7578 81.4899 98.9003 81.26 99.1294L73.8181 105.75V80.4375C73.8181 79.6916 74.1144 78.9762 74.6419 78.4488C75.1693 77.9213 75.8847 77.625 76.6306 77.625H110.381Z" fill="#CCCCCC"/>
</g>
<defs>
<clipPath id="clip0">
<rect width="45" height="45" fill="white" transform="translate(71 72)"/>
</clipPath>
</defs>
</svg>
