<svg width="20" height="20" viewBox="0 0 20 20" fill="none" xmlns="http://www.w3.org/2000/svg">
<g clip-path="url(#clip0)">
<path d="M13.7501 3.1249C13.75 2.3917 14.0077 1.6818 14.4782 1.11942C14.9486 0.557037 15.6018 0.177984 16.3235 0.0485756C17.0452 -0.0808323 17.7895 0.047646 18.426 0.411532C19.0625 0.775419 19.5509 1.35154 19.8055 2.0391C20.0602 2.72666 20.065 3.48188 19.8191 4.17262C19.5732 4.86336 19.0922 5.44564 18.4603 5.81758C17.8285 6.18953 17.0859 6.32745 16.3627 6.20722C15.6394 6.08699 14.9814 5.71626 14.5038 5.1599L6.10634 9.05991C6.29939 9.6717 6.29939 10.3281 6.10634 10.9399L14.5038 14.8399C15.0086 14.2528 15.7134 13.874 16.4816 13.777C17.2497 13.6799 18.0266 13.8715 18.6616 14.3145C19.2965 14.7576 19.7444 15.4206 19.9184 16.1751C20.0924 16.9295 19.9801 17.7217 19.6033 18.3981C19.2265 19.0745 18.612 19.587 17.8789 19.8361C17.1458 20.0853 16.3464 20.0534 15.6354 19.7467C14.9245 19.44 14.3527 18.8802 14.031 18.176C13.7092 17.4718 13.6603 16.6731 13.8938 15.9349L5.49634 12.0349C5.08063 12.5194 4.52653 12.8649 3.90856 13.025C3.2906 13.1851 2.63842 13.1521 2.03976 12.9305C1.4411 12.7089 0.924682 12.3092 0.559972 11.7853C0.195261 11.2613 -0.000244141 10.6383 -0.000244141 9.9999C-0.000244141 9.36153 0.195261 8.73848 0.559972 8.21455C0.924682 7.69062 1.4411 7.29095 2.03976 7.06931C2.63842 6.84766 3.2906 6.81468 3.90856 6.9748C4.52653 7.13491 5.08063 7.48044 5.49634 7.9649L13.8938 4.0649C13.7982 3.76074 13.7498 3.44374 13.7501 3.1249Z" fill="black"/>
</g>
<defs>
<clipPath id="clip0">
<rect width="20" height="20" fill="white"/>
</clipPath>
</defs>
</svg>
