<svg width="18" height="18" viewBox="0 0 18 18" fill="none" xmlns="http://www.w3.org/2000/svg">
<g clip-path="url(#clip0)">
<path d="M8.84253 6.2998C8.84253 6.15062 8.78327 6.00755 8.67778 5.90206C8.57229 5.79657 8.42921 5.7373 8.28003 5.7373C8.13085 5.7373 7.98777 5.79657 7.88228 5.90206C7.77679 6.00755 7.71753 6.15062 7.71753 6.2998V9.5623H4.34253C4.19335 9.5623 4.05027 9.62157 3.94478 9.72706C3.83929 9.83255 3.78003 9.97562 3.78003 10.1248C3.78003 10.274 3.83929 10.4171 3.94478 10.5226C4.05027 10.628 4.19335 10.6873 4.34253 10.6873H8.28003C8.42921 10.6873 8.57229 10.628 8.67778 10.5226C8.78327 10.4171 8.84253 10.274 8.84253 10.1248V6.2998Z" fill="#888888"/>
<path d="M6.59252 1.125C6.59252 0.975816 6.65179 0.832742 6.75728 0.727252C6.86276 0.621763 7.00584 0.5625 7.15502 0.5625H9.40502C9.55421 0.5625 9.69728 0.621763 9.80277 0.727252C9.90826 0.832742 9.96752 0.975816 9.96752 1.125C9.96752 1.27418 9.90826 1.41726 9.80277 1.52275C9.69728 1.62824 9.55421 1.6875 9.40502 1.6875V2.32875C10.935 2.54925 12.3233 3.20625 13.437 4.17375C13.4415 4.16882 13.446 4.16394 13.4505 4.15912L13.8488 3.76087L13.4505 3.36375C13.3449 3.25828 13.2855 3.11516 13.2854 2.9659C13.2853 2.81663 13.3445 2.67343 13.45 2.56781C13.5554 2.46219 13.6985 2.40279 13.8478 2.40269C13.9971 2.40258 14.1403 2.46178 14.2459 2.56725L15.8366 4.15912C15.8904 4.21101 15.9332 4.27308 15.9627 4.34171C15.9922 4.41034 16.0077 4.48415 16.0084 4.55884C16.009 4.63352 15.9948 4.70759 15.9665 4.77672C15.9382 4.84585 15.8964 4.90866 15.8436 4.96147C15.7908 5.01429 15.728 5.05605 15.6589 5.08434C15.5897 5.11262 15.5157 5.12685 15.441 5.1262C15.3663 5.12555 15.2925 5.11004 15.2239 5.08056C15.1552 5.05108 15.0932 5.00822 15.0413 4.9545L14.6441 4.55625L14.2459 4.9545C14.2411 4.95908 14.2362 4.96358 14.2313 4.968C15.3767 6.29027 16.0493 7.95631 16.1428 9.70323C16.2363 11.4501 15.7455 13.1785 14.7478 14.6155C13.7501 16.0525 12.3022 17.1164 10.6328 17.6393C8.96335 18.1621 7.16732 18.1142 5.52811 17.5031C3.88891 16.892 2.49986 15.7525 1.58015 14.2643C0.660439 12.7762 0.262437 11.0241 0.448945 9.28468C0.635452 7.54523 1.39585 5.91741 2.61015 4.65807C3.82445 3.39873 5.42352 2.57958 7.15502 2.32987V1.6875C7.00584 1.6875 6.86276 1.62824 6.75728 1.52275C6.65179 1.41726 6.59252 1.27418 6.59252 1.125ZM8.28002 3.375C7.3936 3.37507 6.51587 3.54974 5.69695 3.88903C4.87803 4.22832 4.13396 4.72558 3.50722 5.35243C2.24145 6.6184 1.53044 8.33535 1.53059 10.1256C1.53073 11.9158 2.24204 13.6326 3.50801 14.8984C4.77399 16.1641 6.49094 16.8751 8.28115 16.875C10.0714 16.8748 11.7882 16.1635 13.054 14.8976C14.3197 13.6316 15.0307 11.9146 15.0306 10.1244C15.0304 8.33423 14.3191 6.6174 13.0532 5.35163C11.7872 4.08587 10.0702 3.37485 8.28002 3.375Z" fill="#888888"/>
</g>
<defs>
<clipPath id="clip0">
<rect width="18" height="18" fill="white"/>
</clipPath>
</defs>
</svg>
