<svg width="26" height="27" viewBox="0 0 26 27" fill="none" xmlns="http://www.w3.org/2000/svg">
<g clip-path="url(#clip0)">
<path d="M1.10293 16.5503C1.31237 16.5503 1.51324 16.6335 1.66133 16.7816C1.80943 16.9297 1.89263 17.1306 1.89263 17.34V21.2885C1.89263 21.7074 2.05903 22.1091 2.35523 22.4053C2.65142 22.7015 3.05315 22.8679 3.47203 22.8679H22.4248C22.8437 22.8679 23.2454 22.7015 23.5416 22.4053C23.8378 22.1091 24.0042 21.7074 24.0042 21.2885V17.34C24.0042 17.1306 24.0874 16.9297 24.2355 16.7816C24.3836 16.6335 24.5845 16.5503 24.7939 16.5503C25.0034 16.5503 25.2042 16.6335 25.3523 16.7816C25.5004 16.9297 25.5836 17.1306 25.5836 17.34V21.2885C25.5836 22.1263 25.2508 22.9297 24.6584 23.5221C24.066 24.1145 23.2626 24.4473 22.4248 24.4473H3.47203C2.63427 24.4473 1.83081 24.1145 1.23842 23.5221C0.646033 22.9297 0.313232 22.1263 0.313232 21.2885V17.34C0.313232 17.1306 0.396433 16.9297 0.54453 16.7816C0.692627 16.6335 0.893491 16.5503 1.10293 16.5503Z" fill="#888888"/>
<path d="M12.3892 2.72419C12.4626 2.65065 12.5497 2.5923 12.6457 2.55249C12.7416 2.51268 12.8445 2.49219 12.9483 2.49219C13.0522 2.49219 13.1551 2.51268 13.251 2.55249C13.3469 2.5923 13.4341 2.65065 13.5074 2.72419L18.2456 7.46239C18.3939 7.61067 18.4772 7.81179 18.4772 8.0215C18.4772 8.2312 18.3939 8.43232 18.2456 8.5806C18.0973 8.72889 17.8962 8.81219 17.6865 8.81219C17.4768 8.81219 17.2757 8.72889 17.1274 8.5806L13.738 5.18963V19.0773C13.738 19.2867 13.6548 19.4876 13.5067 19.6357C13.3586 19.7838 13.1578 19.867 12.9483 19.867C12.7389 19.867 12.538 19.7838 12.3899 19.6357C12.2418 19.4876 12.1586 19.2867 12.1586 19.0773V5.18963L8.76924 8.5806C8.69582 8.65403 8.60865 8.71227 8.51272 8.75201C8.41679 8.79174 8.31397 8.81219 8.21013 8.81219C8.1063 8.81219 8.00348 8.79174 7.90754 8.75201C7.81161 8.71227 7.72445 8.65403 7.65102 8.5806C7.5776 8.50718 7.51936 8.42001 7.47962 8.32408C7.43989 8.22815 7.41943 8.12533 7.41943 8.0215C7.41943 7.91766 7.43989 7.81484 7.47962 7.71891C7.51936 7.62298 7.5776 7.53581 7.65102 7.46239L12.3892 2.72419Z" fill="#888888"/>
</g>
<defs>
<clipPath id="clip0">
<rect width="25.2704" height="25.2704" fill="white" transform="translate(0.313232 0.914062)"/>
</clipPath>
</defs>
</svg>
